<?xml version="1.0" encoding="utf-8"?>
<!-- Generator: Adobe Illustrator 22.0.1, SVG Export Plug-In . SVG Version: 6.00 Build 0)  -->
<svg version="1.1" id="Layer_1" xmlns="http://www.w3.org/2000/svg" xmlns:xlink="http://www.w3.org/1999/xlink" x="0px" y="0px"
	 viewBox="0 0 37 60" style="enable-background:new 0 0 37 60;" xml:space="preserve">
<style type="text/css">
	.st0{fill:#FFFFFF;}
</style>
<path class="st0" d="M36.1,17.5L30,16.6V1.5c0-0.3-0.2-0.6-0.4-0.8c-0.3-0.2-0.6-0.2-0.9-0.1l-28,12C0.2,12.7,0,13.1,0,13.5V53
	c0,0.5,0.4,0.9,0.8,1l35,5.5c0.1,0,0.1,0,0.2,0c0.2,0,0.5-0.1,0.7-0.2c0.2-0.2,0.3-0.5,0.3-0.8v-40C37,18,36.6,17.6,36.1,17.5z
	 M28,16.3L4.7,13L28,3V16.3z M35,57.3L2,52.1V14.7l26.9,3.8l6.1,0.9V57.3z"/>
</svg>
