<svg id="Layer_1" data-name="Layer 1" xmlns="http://www.w3.org/2000/svg" viewBox="0 0 17.23 26.17"><defs><style>.cls-1{fill:#fe0066;}</style></defs><title>book-pink</title><path class="cls-1" d="M26.16,25.27,23,24.78v-6.9a.53.53,0,0,0-.15-.32.42.42,0,0,0-.36,0L11.55,23.21a.34.34,0,0,0-.28.35V39a.43.43,0,0,0,.32.39L26,41.67h.08a.7.7,0,0,0,.27-.08.41.41,0,0,0,.12-.31V25.66A.41.41,0,0,0,26.16,25.27Zm-3.95-.61-9.1-1.29,9.1-4.91Zm3.52,16.15L12.05,38.64V24l10.51,1.49,3.17.49Z" transform="translate(-10.27 -16.5)"/><path class="cls-1" d="M26.12,42.67h-.24L11.43,40.37A1.44,1.44,0,0,1,10.27,39V23.56a1.34,1.34,0,0,1,.9-1.28L22,16.64a.47.47,0,0,1,.15-.06,1.38,1.38,0,0,1,1.22.15.64.64,0,0,1,.15.13,1.45,1.45,0,0,1,.45,1v6l2.32.36h0a1.44,1.44,0,0,1,1.16,1.38V41.28a1.44,1.44,0,0,1-.41,1,1.15,1.15,0,0,1-.26.19A1.8,1.8,0,0,1,26.12,42.67ZM13.05,37.79l11.68,1.85V26.86l-2.32-.35-9.36-1.32Zm3.21-15,4.95.7V20.14Z" transform="translate(-10.27 -16.5)"/></svg>