<svg id="Layer_1" data-name="Layer 1" xmlns="http://www.w3.org/2000/svg" viewBox="0 0 15.45 24.03"><defs><style>.cls-1{fill:#fe0066;}</style></defs><title>book-pink</title><path class="cls-1" d="M25.38,25.13,23,24.78v-5.9a.53.53,0,0,0-.15-.32.42.42,0,0,0-.36,0L11.55,23.21a.34.34,0,0,0-.28.35V39a.43.43,0,0,0,.32.39l13.67,2.14h.08a.72.72,0,0,0,.27-.07.45.45,0,0,0,.12-.32V25.52A.42.42,0,0,0,25.38,25.13Zm-3.17-.47-9.1-1.29,9.1-3.91Zm2.74,16-12.9-2V24l10.51,1.49,2.39.35Z" transform="translate(-10.77 -18)"/><path class="cls-1" d="M25.34,42h-.16L11.51,39.88a.93.93,0,0,1-.74-.88V23.56a.83.83,0,0,1,.62-.82l10.9-4.67a.86.86,0,0,1,.82.08,1,1,0,0,1,.38.73v5.46l2,.29h0a.91.91,0,0,1,.76.88V41.14a.94.94,0,0,1-.27.67.38.38,0,0,1-.13.09A1.23,1.23,0,0,1,25.34,42ZM12.55,38.22l11.9,1.87V26.3l-2-.29-9.94-1.4ZM15,23.12l6.76,1V20.22Z" transform="translate(-10.77 -18)"/></svg>