<svg xmlns="http://www.w3.org/2000/svg" viewBox="0 0 321 218"><defs><style>.cls-1{fill:#0c0b0b;}</style></defs><title>Asset 1</title><g id="Layer_2" data-name="Layer 2"><g id="Layer_1-2" data-name="Layer 1"><path class="cls-1" d="M161,218c-25.81,0-66.55-6.95-114.09-40C18.56,158.23,1.46,138.79.74,138a3,3,0,0,1,.16-4.12A414.77,414.77,0,0,1,52.3,92.77C80.12,73.94,121.48,51.5,160.5,51.5c31.3,0,67.7,13.88,108.18,41.27a416.9,416.9,0,0,1,51.42,41.08,3,3,0,0,1,.17,4.11c-.7.82-17.56,20.26-45.67,40C248.58,196.22,207.76,218,161,218ZM7.21,136.15a283.21,283.21,0,0,0,43.26,37C76,190.86,115.86,212,161,212c78.47,0,141.19-63.33,152.8-75.84C300.44,123.75,226,57.5,160.5,57.5S20.59,123.72,7.21,136.15Z"/><path class="cls-1" d="M160.5,218a83.13,83.13,0,1,1,83.13-83.12A83.22,83.22,0,0,1,160.5,218Zm0-160.25a77.13,77.13,0,1,0,77.13,77.13A77.21,77.21,0,0,0,160.5,57.75Z"/><path class="cls-1" d="M160.5,164.75a29.88,29.88,0,1,1,29.88-29.87A29.9,29.9,0,0,1,160.5,164.75Zm0-53.75a23.88,23.88,0,1,0,23.88,23.88A23.9,23.9,0,0,0,160.5,111Z"/><path class="cls-1" d="M40,104a3,3,0,0,1-2.4-1.2l-30-40a3,3,0,0,1,4.8-3.6l30,40A3,3,0,0,1,40,104Z"/><path class="cls-1" d="M98,68a3,3,0,0,1-2.82-2l-16-44A3,3,0,1,1,84.82,20l16,44A3,3,0,0,1,99,67.82,3.1,3.1,0,0,1,98,68Z"/><path class="cls-1" d="M163,57a3,3,0,0,1-3-3V3a3,3,0,0,1,6,0V54A3,3,0,0,1,163,57Z"/><path class="cls-1" d="M224.58,73.9a3,3,0,0,1-2.79-4.09l19.41-49.9a3,3,0,1,1,5.6,2.18L227.38,72A3,3,0,0,1,224.58,73.9Z"/><path class="cls-1" d="M283.46,110a3,3,0,0,1-2.4-4.8l34.54-46a3,3,0,0,1,4.8,3.6l-34.54,46A3,3,0,0,1,283.46,110Z"/></g></g></svg>