<?xml version="1.0" encoding="UTF-8"?>
<svg width="140px" height="19px" viewBox="0 0 140 19" version="1.1" xmlns="http://www.w3.org/2000/svg" xmlns:xlink="http://www.w3.org/1999/xlink">
    <!-- Generator: Sketch 49.3 (51167) - http://www.bohemiancoding.com/sketch -->
    <title>vince_logo_header</title>
    <desc>Created with Sketch.</desc>
    <defs></defs>
    <g id="Symbols" stroke="none" stroke-width="1" fill="none" fill-rule="evenodd">
        <g id="components/logo/white-vince" fill="#FFFFFF">
            <g id="vince_logo_header">
                <path d="M130.81046,5.69567373 C129.959891,1.78553346 125.990571,0.337333356 121.170682,0.0476933363 C116.350793,-0.241946684 108.837436,0.771793386 107.27806,3.52337358 C105.718685,6.27495377 105.435162,12.5022142 107.27806,15.5434344 C107.419822,15.8330744 109.262721,19.7432147 121.737728,18.8742946 C130.526937,18.5846546 130.385176,13.2263142 130.385176,13.0814942 L126.415855,13.0814942 C126.274094,14.6745143 124.572956,15.9778944 123.155342,16.4123545 C120.600741,17.0349597 117.950582,17.1334084 115.358463,16.7019945 C110.396812,15.6882544 110.396812,11.9229342 110.396812,10.4747341 L130.952221,10.4747341 C131.047582,8.88062859 131.00013,7.28095555 130.81046,5.69567373 Z M126.699378,8.1576139 L110.396812,8.1576139 C110.113289,3.37855357 114.08261,2.3648135 116.350793,2.07517348 C118.137719,1.81953427 119.950801,1.81953427 121.737728,2.07517348 C127.549947,3.08891355 126.699378,8.1576139 126.699378,8.1576139 Z" id="Shape"></path>
                <rect id="Rectangle-path" fill-rule="nonzero" x="31" y="0" width="4" height="18"></rect>
                <polygon id="Shape" points="14.8972973 18 26 0 21.6432432 0 13.0702703 13.9354839 4.63783784 0 0 0 10.1189189 18"></polygon>
                <polygon id="Shape" points="63.1204819 0 63.1204819 13.5 48.2951807 0 44 0 44 18 47.6024096 18 47.6024096 4.5 62.2891566 18 67 18 67 0"></polygon>
                <circle id="Oval" fill-rule="nonzero" cx="137.5" cy="15.5" r="2.5"></circle>
                <path d="M98.9479709,12.0834261 L95.0730752,12.0834261 C95.0730752,17.1139283 87.0465054,16.6827424 87.0465054,16.6827424 C78.6047682,16.6827424 79.2967139,9.49631064 79.2967139,9.49631064 C79.2967139,1.59123569 87.0465054,2.0224216 87.0465054,2.0224216 C95.4882426,2.0224216 95.0730752,6.9091952 95.0730752,6.9091952 L98.9479709,6.9091952 C98.9479709,-0.564693839 87.0465054,0.010220703 87.0465054,0.010220703 C74.3147051,0.010220703 75.0066508,9.49631064 75.0066508,9.49631064 C75.0066508,19.8447724 87.0465054,18.9824006 87.0465054,18.9824006 C100.470251,18.9824006 98.9479709,12.0834261 98.9479709,12.0834261 Z" id="Shape"></path>
            </g>
        </g>
    </g>
</svg>